HIERARCHY
ROOT pelvis
{
	OFFSET 0.000000 0.000000 0.000000
	CHANNELS 6 Xposition Yposition Zposition Zrotation Xrotation Yrotation
	JOINT lfemur
	{
		OFFSET 11.446000 0.000000 0.000000
		CHANNELS 3 Zrotation Xrotation Yrotation
		JOINT ltibia
		{
			OFFSET 0.000000 -42.030400 0.000000
			CHANNELS 3 Zrotation Xrotation Yrotation
			JOINT lfoot
			{
				OFFSET 0.000000 -39.930200 0.000000
				CHANNELS 3 Zrotation Xrotation Yrotation
				JOINT ltoes
				{
					OFFSET 0.000000 0.000000 11.775800
					CHANNELS 3 Zrotation Xrotation Yrotation
					End Site
					{
					    OFFSET 0.000000 0.000000 5.000000
					}
				}
			}
		}
	}
	JOINT rfemur
	{
		OFFSET -11.446000 0.000000 0.000000
		CHANNELS 3 Zrotation Xrotation Yrotation
		JOINT rtibia
		{
			OFFSET 0.000000 -42.030400 0.000000
			CHANNELS 3 Zrotation Xrotation Yrotation
			JOINT rfoot
			{
				OFFSET 0.000000 -39.930200 0.000000
				CHANNELS 3 Zrotation Xrotation Yrotation
				JOINT rtoes
				{
					OFFSET 0.000000 0.000000 11.775800
					CHANNELS 3 Zrotation Xrotation Yrotation
					End Site
					{
					    OFFSET 0.000000 0.000000 5.000000
					}
				}
			}
		}
	}
	JOINT thorax
	{
		OFFSET 0.000000 11.255600 -5.000000
		CHANNELS 3 Zrotation Xrotation Yrotation
		JOINT head
		{
			OFFSET 0.000000 43.799300 0.000000
			CHANNELS 3 Zrotation Xrotation Yrotation
			End Site
			{
			    OFFSET 0.000000 5.000000 0.000000
			}
		}
		JOINT lclavicle
		{
			OFFSET 0.000000 39.863000 0.000000
			CHANNELS 3 Zrotation Xrotation Yrotation
			JOINT lhumerus
			{
				OFFSET 17.380600 4.958300 0.000000
				CHANNELS 3 Zrotation Xrotation Yrotation
				JOINT lradius
				{
					OFFSET 0.000000 -27.561300 0.000000
					CHANNELS 3 Zrotation Xrotation Yrotation
					JOINT lhand
					{
						OFFSET 0.000000 -26.933000 0.000000
						CHANNELS 3 Zrotation Xrotation Yrotation
						End Site
						{
						    OFFSET 0.000000 -5.000000 0.000000
						}
					}
				}
			}
		}
		JOINT rclavicle
		{
			OFFSET 0.000000 39.863000 0.000000
			CHANNELS 3 Zrotation Xrotation Yrotation
			JOINT rhumerus
			{
				OFFSET -17.380600 4.958300 0.000000
				CHANNELS 3 Zrotation Xrotation Yrotation
				JOINT rradius
				{
					OFFSET 0.000000 -27.561300 0.000000
					CHANNELS 3 Zrotation Xrotation Yrotation
					JOINT rhand
					{
						OFFSET 0.000000 -26.933000 0.000000
						CHANNELS 3 Zrotation Xrotation Yrotation
						End Site
						{
						    OFFSET 0.000000 -5.000000 0.000000
						}
					}
				}
			}
		}
	}
}
MOTION
Frames:	18
Frame Time:	0.0333333
47.016500 86.990100 6.267600 -3.135323 -1.596038 -91.533821 -7.908602 0.224990 -6.940991 -0.000000 20.405486 -0.000000 0.000000 -1.281549 11.455805 -0.000000 -1.321929 -0.000000 -2.796790 -1.581445 -3.484499 0.000000 20.880106 -0.000000 0.000000 -0.849122 -1.630727 -0.000000 -29.542852 -0.000000 -4.509315 2.126499 1.083339 20.955095 26.872731 -0.263935 1.649143 -0.000000 4.192995 83.385658 -7.173710 73.462950 -0.000000 -11.084172 -63.079807 19.864843 3.733006 0.000000 -0.680882 -0.000000 -1.923441 -75.630642 2.421951 -64.884291 0.000000 -20.410458 44.053563 -10.207868 0.055462 -0.000000 
46.970500 87.008300 6.247200 -2.930654 -1.576117 -91.722047 -7.857073 0.275224 -6.847757 0.000000 19.967738 -0.000000 -0.000000 -1.251464 11.520270 -0.000000 -1.317141 -0.000000 -2.753965 -1.664583 -3.361501 0.000000 20.649090 -0.000000 -0.000000 -0.792972 -1.571268 0.000000 -29.542938 -0.000000 -4.460956 2.047781 1.098134 20.902619 26.890856 0.011577 1.179556 0.000000 4.372680 83.040517 -7.138992 73.362415 -0.000001 -10.798224 -63.652906 19.872947 3.418430 -0.000000 -0.064568 -0.000000 -1.856484 -75.415629 2.258677 -63.902523 0.000000 -20.123325 44.615325 -10.543681 0.168523 -0.000000 
46.948300 87.010000 6.260100 -2.850177 -1.626908 -91.803253 -7.909556 0.396353 -6.857913 0.000000 19.598566 -0.000000 -0.000000 -1.217492 11.616505 0.000000 -1.314572 -0.000000 -2.822123 -1.721704 -3.388195 0.000000 20.538574 -0.000000 0.000000 -0.869066 -1.517210 -0.000000 -29.542873 -0.000000 -4.490296 2.113757 1.032633 20.884805 26.843641 0.209465 0.608079 -0.000000 4.541885 82.615788 -7.039266 72.660547 -0.000000 -10.569910 -62.791321 19.126491 3.347578 0.000000 0.795167 -0.000000 -1.688747 -75.452144 2.355724 -62.262161 -0.000000 -19.944416 43.769219 -9.837890 -0.070461 0.000000 
46.959800 87.002500 6.272000 -2.742330 -1.710104 -91.826722 -7.959655 0.375458 -6.762189 -0.000000 19.408763 -0.000000 0.000000 -1.174633 11.484686 -0.000000 -1.312435 -0.000000 -2.922319 -1.935990 -3.397886 -0.000000 20.720572 0.000000 0.000000 -0.965514 -1.483224 -0.000000 -29.542712 -0.000000 -4.591518 2.205835 0.966843 20.932428 26.818041 0.468965 0.353373 0.000000 4.504097 81.837908 -6.975565 73.818112 0.000001 -9.870873 -63.048444 17.880065 3.188682 0.000000 1.591726 0.000000 -1.735524 -75.283317 2.036724 -61.805080 -0.000000 -19.525757 43.260172 -9.801469 -0.083414 -0.000000 
46.980900 87.004900 6.274100 -2.659107 -1.732340 -91.716299 -7.963259 0.312776 -6.832417 0.000000 19.337419 -0.000000 -0.000000 -1.157710 11.402210 -0.000000 -1.311499 0.000000 -2.934130 -2.038601 -3.457741 0.000000 20.809673 -0.000000 0.000000 -0.923569 -1.504162 -0.000000 -29.542856 -0.000000 -4.675775 2.293654 0.831600 21.135977 26.788250 0.430233 -0.029206 -0.000000 4.240798 81.040848 -6.623684 74.424987 0.000000 -9.583821 -62.533616 17.073313 3.172247 0.000000 2.317392 0.000000 -1.569537 -74.770953 1.965495 -61.730025 0.000000 -19.210220 43.231033 -10.329856 0.095202 -0.000000 
47.019100 87.017300 6.270000 -2.586931 -1.745179 -91.535132 -7.952592 0.219505 -6.924643 -0.000000 19.304600 -0.000000 -0.000000 -1.107234 11.343062 -0.000000 -1.311701 -0.000000 -2.923904 -2.025711 -3.510235 -0.000000 20.613623 0.000000 -0.000000 -0.900279 -1.628110 -0.000000 -29.542357 -0.000000 -4.770974 2.363265 0.757237 21.456423 26.844211 0.420086 -0.557363 -0.000000 3.788547 80.112687 -6.239474 75.187436 0.000000 -9.242041 -62.502623 16.662142 3.034174 0.000000 3.276544 -0.000000 -1.244002 -74.262856 2.547395 -61.068132 -0.000001 -19.361940 42.356876 -9.970953 -0.027687 -0.000000 
47.065000 87.031500 6.263000 -2.482762 -1.718438 -91.277120 -7.906036 0.077500 -7.074429 -0.000000 19.311478 -0.000000 -0.000000 -1.040837 11.243008 -0.000000 -1.308964 0.000000 -2.856422 -2.040766 -3.552287 0.000000 20.459469 -0.000000 -0.000000 -0.852836 -1.819451 -0.000000 -29.542265 0.000000 -4.858228 2.431585 0.665561 21.940226 26.804547 0.408912 -1.128579 -0.000000 3.716768 78.797235 -6.335591 74.346110 -0.000000 -9.034528 -61.477203 16.386842 2.738790 -0.000000 4.309445 0.000000 -1.097405 -73.723880 2.761954 -61.022247 0.000001 -19.091320 41.366509 -9.525227 -0.178001 -0.000000 
47.133700 87.039400 6.276700 -2.312607 -1.746605 -90.927430 -7.921331 -0.145262 -7.328461 0.000000 19.310660 -0.000000 -0.000000 -0.979364 11.170733 0.000000 -1.310113 0.000000 -2.895607 -2.199086 -3.844654 0.000000 20.466277 -0.000000 -0.000000 -0.831415 -1.840108 -0.000000 -29.542207 -0.000000 -5.008167 2.469943 0.595826 22.600763 26.716119 0.443831 -2.079624 -0.000000 3.558315 77.478075 -6.546330 72.926032 -0.000000 -8.833012 -60.619159 16.910244 2.821514 -0.000000 5.456916 0.000000 -0.987379 -73.025976 3.171696 -60.498810 -0.000001 -18.874422 40.434656 -8.492906 -0.527571 -0.000000 
47.219800 87.037800 6.297000 -2.119282 -1.741999 -90.600491 -7.908330 -0.422156 -7.532343 -0.000000 19.366696 0.000000 0.000000 -0.941934 11.011749 0.000000 -1.309974 0.000000 -2.904030 -2.370067 -4.091012 0.000000 20.432081 -0.000000 0.000000 -0.835846 -1.903597 -0.000000 -29.543101 -0.000000 -5.117825 2.543259 0.566419 23.497548 26.595732 0.897672 -3.248448 0.000000 3.450719 75.928649 -6.676083 69.981692 0.000000 -8.965290 -58.791392 15.697037 2.633401 -0.000000 6.602157 -0.000000 -0.942657 -72.322798 3.244854 -60.559362 0.000000 -17.953484 39.780809 -6.982813 -1.036071 0.000000 
47.288100 87.055700 6.304900 -1.980387 -1.700614 -90.241379 -7.860619 -0.629754 -7.790832 0.000000 19.394796 -0.000000 0.000000 -0.901287 10.939420 0.000000 -1.308914 0.000000 -2.853574 -2.384788 -4.320451 0.000000 20.232013 -0.000000 0.000000 -0.667906 -2.024203 0.000000 -29.542627 0.000000 -5.269267 2.660193 0.475380 24.776739 26.391868 0.814033 -4.448047 0.000000 3.301843 74.316957 -6.980669 68.777180 0.000000 -8.595669 -57.829734 14.749229 2.437346 -0.000000 7.834426 0.000000 -0.856124 -71.335620 3.310355 -60.228419 0.000000 -17.090990 38.771462 -4.910581 -1.735718 0.000000 
47.369500 87.080300 6.310100 -1.842043 -1.651158 -89.944644 -7.801261 -0.806995 -8.001216 0.000000 19.350731 -0.000000 0.000000 -0.808332 10.859117 -0.000000 -1.309467 0.000000 -2.763259 -2.412153 -4.353290 -0.000000 20.037682 -0.000000 0.000000 -0.473071 -2.246996 -0.000000 -29.542586 -0.000000 -5.379675 2.758910 0.501687 25.978093 26.433600 1.108753 -5.651433 0.000000 3.138437 72.123162 -7.322507 66.872292 -0.000000 -8.555272 -55.871373 13.807144 2.328470 0.000000 9.038886 0.000000 -0.636674 -70.020629 3.575324 -59.976206 -0.000000 -16.341987 37.726706 -3.234929 -2.298232 -0.000000 
47.472400 87.107100 6.320200 -1.718370 -1.573231 -89.597405 -7.708523 -1.000748 -8.187746 -0.000000 19.336382 -0.000000 0.000000 -0.725685 10.705489 0.000000 -1.311767 0.000000 -2.667556 -2.415931 -4.501053 -0.000000 19.759255 -0.000000 -0.000000 -0.289787 -2.436442 0.000000 -29.542364 -0.000000 -5.457599 2.836503 0.448803 27.242735 26.497832 1.105227 -6.770795 -0.000000 2.366241 69.425319 -6.993771 65.974174 0.000000 -8.265893 -55.760885 13.411509 2.142536 0.000000 10.327484 -0.000000 -0.414589 -68.562464 3.814840 -59.031955 0.000000 -15.649792 37.577283 -1.505960 -2.881340 0.000000 
47.559000 87.133700 6.378200 -1.607496 -1.523406 -89.347299 -7.677657 -1.131829 -8.312497 -0.000000 19.243329 -0.000000 -0.000000 -0.604664 10.573172 -0.000000 -1.308878 0.000000 -2.660734 -2.363965 -4.728868 -0.000000 19.363218 -0.000000 -0.000000 -0.202193 -2.570519 0.000000 -29.541015 -0.000000 -5.455054 3.043575 0.416191 27.922203 26.470452 1.370133 -7.883585 0.000000 2.098794 66.215133 -7.156848 63.974366 0.000000 -8.051589 -54.866156 12.559297 1.755819 0.000000 11.600556 -0.000000 -0.592351 -66.926380 3.622463 -56.699410 -0.000001 -15.352873 37.389581 -0.335249 -3.276150 -0.000000 
47.698500 87.164100 6.434900 -1.461138 -1.419875 -89.145442 -7.608402 -1.389383 -8.404967 0.000000 19.259777 -0.000000 -0.000000 -0.496965 10.471796 -0.000000 -1.311127 -0.000000 -2.560137 -2.402250 -4.733341 -0.000000 19.007816 -0.000000 -0.000000 0.072801 -2.747100 -0.000000 -29.541141 -0.000000 -5.451618 3.198768 0.285251 28.764038 26.345081 1.392649 -8.699143 0.000000 1.714546 62.269389 -7.014883 62.157934 -0.000000 -7.825823 -54.700836 12.262538 1.782510 -0.000000 13.084810 -0.000000 -0.273217 -65.060642 3.779200 -53.838441 -0.000000 -15.424151 37.031645 0.676225 -3.621441 -0.000000 
47.912300 87.174200 6.506000 -1.113948 -1.303889 -89.085037 -7.539474 -1.982318 -8.356895 -0.000000 19.450445 -0.000000 -0.000000 -0.467486 10.281793 -0.000000 -1.306322 -0.000000 -2.473628 -2.813607 -4.645580 0.000000 18.874928 -0.000000 0.000000 0.383629 -2.747606 -0.000000 -29.542207 -0.000000 -5.333673 3.190540 0.385222 29.191009 26.242856 1.761818 -10.043280 -0.000000 1.774751 58.308986 -7.402484 57.687382 -0.000000 -7.994249 -52.955458 11.677471 1.877434 -0.000000 14.639180 0.000000 -0.235232 -62.995691 4.016615 -50.069532 -0.000000 -16.041302 36.184887 0.240489 -3.475753 -0.000000 
48.056500 87.198100 6.573400 -0.941650 -1.183332 -89.016787 -7.459847 -2.256190 -8.448513 0.000000 19.476317 -0.000000 -0.000000 -0.426532 10.207662 0.000000 -1.309886 -0.000000 -2.399043 -2.946147 -4.748558 -0.000000 18.597323 -0.000000 -0.000000 0.683306 -2.692160 0.000000 -29.542634 -0.000000 -5.252448 3.411122 0.284575 29.427614 25.890067 1.932706 -11.278231 -0.000000 2.117316 54.155536 -7.850712 52.395918 0.000000 -8.235856 -51.936409 10.606984 1.544900 0.000000 15.931928 0.000000 0.048361 -60.165722 4.046820 -47.136412 -0.000000 -16.536960 36.194241 -0.263856 -3.308934 0.000000 
48.279600 87.221500 6.687500 -0.675147 -1.142262 -88.975770 -7.532551 -2.699751 -8.653989 -0.000000 19.523219 -0.000000 -0.000000 -0.325521 10.362992 -0.000000 -1.307154 -0.000000 -2.442636 -3.257873 -4.838026 -0.000000 18.393488 -0.000000 0.000000 0.853900 -2.713373 -0.000000 -29.542289 -0.000000 -5.159854 3.534931 0.268368 29.398382 25.589955 2.090776 -12.666903 0.000000 1.835520 49.997759 -7.691762 46.820876 0.000000 -8.528122 -50.685120 9.848993 1.306424 -0.000000 17.331091 0.000000 0.489793 -57.254563 4.408009 -43.857388 -0.000000 -17.378452 35.849511 0.287904 -3.500164 -0.000000 
48.568700 87.232100 6.766900 -0.364051 -1.133090 -88.976480 -7.572876 -3.222996 -8.665140 -0.000000 19.545388 -0.000000 -0.000000 -0.172556 10.324505 -0.000000 -1.306181 0.000000 -2.493375 -3.796285 -4.802859 0.000000 18.428906 -0.000000 0.000000 1.121870 -2.692628 -0.000000 -29.542791 0.000000 -5.154822 3.663953 0.364753 29.326546 25.032086 1.975120 -13.775295 0.000000 1.213778 45.492640 -7.026175 39.883655 -0.000000 -9.473306 -49.729594 9.643192 1.191463 -0.000000 18.552988 -0.000000 0.598055 -53.838252 4.031466 -40.941413 0.000001 -17.441141 35.353188 -0.736047 -3.155897 0.000000 
